<?xml version="1.0" encoding="UTF-8"?>
<svg id="Layer_2" data-name="Layer 2" xmlns="http://www.w3.org/2000/svg" viewBox="0 0 746.34 749.06">
  <defs>
    <style>
      .cls-1 {
        fill: #fff;
      }
    </style>
  </defs>
  <g id="Layer_1-2" data-name="Layer 1">
    <path class="cls-1" d="M143.87,347.23c2.1-2.75,4.52-5.17,7.11-7.27-2.75,1.94-5.17,4.36-7.43,7.27,2.75,9.37,7.91,15.34,15.02,18.9-6.94-3.88-12.11-9.69-14.7-18.9ZM250.63,597.57c.97,3.07,2.58,5.82,5.17,8.4-2.42-2.58-4.04-5.33-5.17-8.4ZM272.6,500.5c-4.04-48.94-53.3-50.88-48.94-81.4.65-1.29,1.61-2.42,2.91-3.39-1.45.81-2.58,2.1-3.23,3.39-4.36,30.53,44.9,32.46,48.94,81.4,6.95,28.75-31.66,70.42-21.64,97.07-9.53-26.97,28.91-68.48,21.97-97.07ZM270.34,371.78c4.04,1.45,7.75,3.07,11.14,5.33-3.39-2.42-7.11-4.04-11.14-5.33ZM278.25,399.56c2.26-1.13,4.2-2.42,5.98-4.36-1.78,1.61-3.72,3.07-5.98,4.36ZM290.69,385.83c-2.58-3.55-5.65-6.46-9.04-8.72,3.23,2.42,6.14,5.17,8.72,8.72-1.29,3.72-3.39,6.78-6.14,9.37,2.91-2.26,5.17-5.49,6.46-9.37ZM314.91,646.99c-4.52,5.33-9.21,10.5-14.05,15.5,5.01-5.01,9.85-10.18,14.37-15.5,5.01-6.95,11.47-14.7,18.9-21.8-7.59,6.78-14.21,14.7-19.22,21.8ZM342.05,618.57c4.2-3.23,8.56-6.14,13.24-8.4-4.52,2.1-9.04,5.01-13.24,8.4ZM389.85,512.45c3.71,2.75,7.59,6.14,11.79,10.34-4.2-4.52-8.08-7.91-11.79-10.34ZM401.64,522.79c2.58,2.75,5.49,5.81,8.72,9.37-3.07-3.55-5.98-6.78-8.72-9.37ZM410.36,532.32c3.88,4.68,8.08,10.01,12.76,15.99-4.36-6.14-8.56-11.31-12.76-15.99ZM448,584.81c-9.04-14.37-17.28-26.49-24.87-36.5,7.27,10.01,15.51,22.13,24.55,36.5.97,1.45,2.1,2.91,3.55,4.36-1.29-1.45-2.26-3.07-3.23-4.36ZM489.5,356.11c7.75-3.88,15.34-8.4,22.61-12.44-7.27,3.88-14.86,8.4-22.61,12.44ZM495.32,250.97c10.34,7.27,22.29,11.14,35.21,13.24-12.92-2.26-24.71-6.14-35.21-13.24ZM588.67,745.51c2.75-.81,5.17-1.94,7.27-3.88-2.1,1.78-4.52,3.07-7.27,3.88ZM592.71,314.44c-10.5,10.66,4.2,31.82,14.37,51.36h.32v-.16c-10.18-19.06-24.39-40.05-14.7-51.2ZM702.21,276.65h-.16q.16.16.32.16l-.16-.16ZM704.31,277.3c2.1.65,4.2,1.13,6.14,1.78v-.16c-1.94-.48-4.04-1.13-6.14-1.61ZM710.77,278.75v.16c.49,0,1.13.16,1.61.32-.48-.16-1.13-.32-1.61-.49ZM741.78,292.96c7.43,8.24,5.98,20.19-13.08,38.92-42.15,58.47-113.86,80.11-164.58,127.59-1.13,1.29-2.1,2.58-2.75,3.88.97-1.29,1.94-2.58,3.07-3.88,50.71-47.48,122.42-69.13,164.58-127.59,19.38-19.06,20.67-31.01,12.76-38.92ZM439.28,99.31c-6.21-22.81-15.26-44.79-27.01-65.42-8.05-14.43-18.12-29.52-27.85-33.05-.67-.34-1.34-.5-2.01-.67-.67-.17-1.17-.17-1.84-.17,1.01,65.59,42.78,143.93,24.49,206.33,0-.17-.17-.17-.17-.34-3.86-6.21-7.72-13.42-11.57-21.47-16.27-34.72-31.7-82.03-47.98-102.16-1.34-1.68-2.68-3.19-4.03-4.53-1.34-1.34-2.85-2.52-4.36-3.52-.67-.5-1.51-.84-2.18-1.17-2.85-1.17-5.54-1.34-8.22-.34-8.56,3.02-17.45,16.94-26.67,46.97,0,0,0,.17-.17.5-.84,3.69-6.04,25.5-9.56,44.12,0,.17,0,.5-.17.67-.67,6.71-1.68,13.08-2.68,19.12-.17.34-.17.5-.17.84-2.18,11.74-4.7,22.31-8.22,31.54-4.19,12.41-9.9,22.65-18.12,30.7-4.7,5.2-10.4,9.56-17.11,13.08,11.57,19.79,29.86,40.93,57.54,54.01,2.52,1.17,4.86,2.18,7.38,3.19h.17c.67-.67,1.01-1.01,1.51-1.51,2.52-2.18,4.87-4.7,6.71-7.55,2.18-2.85,3.86-6.04,5.2-9.56,1.01-1.85,1.68-3.69,2.35-5.7,4.7-22.14,6.37-77.84,18.62-81.36.84-.34,1.68-.34,2.52.17.5.17,1.01.33,1.68.67,3.86,2.01,8.39,8.56,14.26,21.14,27.34,72.8,48.31,109.71,63.91,121.95v.17c.17.17.34.17.5.34,1.17.84,2.35,1.68,3.69,2.35.5.33,1.01.67,1.68.84.67.34,1.17.67,1.84,1.01h.17c37.41,9.23,34.22-154.33,5.87-261.19ZM741.78,292.96c-4.52-5.01-12.11-8.4-21-11.31-2.26-.81-4.52-1.45-6.78-1.94-.49-.16-1.13-.48-1.62-.48-.48-.16-1.13-.32-1.61-.32v.16h-.32c-1.94-.65-4.04-1.13-6.14-1.78-.32-.16-.65-.32-.97-.32h-.32q-.16-.16-.32-.16h-.32q-.16,0-.32-.16h-.16c-.97-.16-1.94-.48-2.91-.81-.97-.32-1.94-.48-2.75-.65-2.42-.65-4.85-1.13-7.11-1.78-34.72-7.11-70.26-8.4-93.03-8.24-.65,0-1.45,0-2.1.16-7.43.32-14.86.65-22.13.81-5.98.16-11.95.32-17.6,0-1.94,0-3.88,0-5.65-.16-3.88-.16-7.59-.49-11.14-.81-2.42-.32-4.68-.65-6.94-.97-12.92-2.1-24.87-5.98-35.21-13.24-5.17-3.23-9.85-7.43-14.21-12.6,3.23,43.45,1.45,89.8-24.39,125.65,3.23.48,6.46.48,9.69,0h.32c1.94-.32,3.39-.65,4.68-.97.81-.16,1.78-.49,2.58-.65.32-.16.48-.16.48-.16,2.42-.65,4.68-1.62,7.11-2.58,2.58-.97,5.17-2.26,7.91-3.55,7.75-4.04,15.34-8.56,22.61-12.44,4.04-2.42,7.75-4.36,11.47-5.81,1.13-.65,2.1-.97,3.23-1.29.32,0,.49-.16.65-.32,1.13-.32,2.1-.65,3.23-.81.97-.32,1.94-.48,2.75-.65.97-.16,1.94-.32,2.91-.32,1.61,0,3.23.16,4.68.49.65.16,1.29.32,1.94.65,8.24,3.23,13.89,14.7,15.67,40.86-1.45,6.78-4.68,12.27-9.21,16.8-1.45,1.61-3.07,2.91-4.68,4.2-4.68,4.04-10.5,7.27-16.47,10.01-1.94.97-4.04,1.94-5.98,2.91-6.14,2.75-12.27,5.33-18.09,8.24h-.16c-7.75,4.04-14.7,8.24-19.87,13.89l-.16-.16-.32.32c-2.91,2.26-25.03,22.13-15.34,69.77-.16.32,0,.65.16,1.13.16,1.45.65,3.07.97,4.68.49,2.26,1.13,4.52,1.78,6.94,6.78,25.03,24.55,50.23,25.68,75.91-.32,10.98-4.52,15.67-10.34,16.63-3.71.65-7.91-.32-12.27-2.1-1.29-.48-2.75-1.13-4.04-1.78-2.58-1.29-5.17-2.91-7.59-4.68-2.58-1.78-5.01-3.71-7.11-5.65h-.16c-1.61-1.45-3.07-2.91-4.2-4.36-1.45-1.45-2.58-2.91-3.55-4.36-9.04-14.37-17.28-26.49-24.55-36.5-4.68-5.98-8.88-11.31-12.76-15.99v-.16c-3.23-3.55-6.14-6.62-8.72-9.37-4.2-4.2-8.08-7.59-11.79-10.34-2.42-1.78-4.85-3.23-7.11-4.52-2.26-1.13-4.36-1.94-6.46-2.58-4.68-1.29-8.88-1.29-12.76,0-2.42.65-4.68,1.94-6.94,3.39-1.13.65-2.26,1.45-3.23,2.42-.32.16-.48.32-.65.49-.97.81-1.78,1.61-2.58,2.42-1.78,1.78-3.23,3.55-5.01,5.49v.16c-1.61,1.94-3.23,4.04-5.01,6.3v.16c-1.61,2.26-3.23,4.68-5.01,7.11v.16c-2.26,3.55-4.68,7.11-7.11,10.82-.16.32-.32.49-.65.81-4.2,6.78-8.88,13.89-14.21,20.84-.81,1.29-1.94,2.75-3.07,4.04l-.16.16c-2.1,2.75-4.36,5.49-6.78,8.08-.97,1.45-2.26,2.75-3.55,4.04-1.61,1.61-3.23,3.23-5.01,4.68-1.61,1.78-3.39,3.23-5.17,4.52-3.71,3.07-7.75,5.98-11.95,8.24-2.26,1.45-4.52,2.58-6.94,3.55-2.1,1.29-4.36,2.26-6.78,3.07-1.78.65-3.55,1.29-5.49,1.78h-.16c-.81-.65-1.61-1.45-2.26-2.1-2.58-2.58-4.2-5.33-5.17-8.4-10.01-26.65,28.59-68.32,21.64-97.07-4.04-48.94-53.3-50.88-48.94-81.4.65-1.29,1.78-2.58,3.23-3.39.65-.65,1.45-1.13,2.26-1.45.81-.48,1.62-.97,2.58-1.29,1.29-.32,2.75-.81,4.36-1.29,8.72-2.58,20.67-4.04,31.17-7.43,4.04-1.29,7.91-2.75,11.3-4.68,2.26-1.29,4.2-2.75,5.98-4.36,2.75-2.58,4.85-5.65,6.14-9.37-2.58-3.55-5.49-6.3-8.72-8.72h-.16c-3.39-2.26-7.11-3.88-11.14-5.33-30.2-9.69-76.23,5.17-104.17-2.75-2.75-.81-5.33-1.78-7.59-2.91-7.11-3.55-12.27-9.53-15.02-18.9,2.26-2.91,4.68-5.33,7.43-7.27,1.29-1.13,2.58-2.1,4.04-2.75,1.45-.97,2.91-1.78,4.36-2.42,2.1-.81,4.2-1.62,6.46-2.26,26.33-8.08,64.12.16,96.42-.97,1.78,0,3.55,0,5.33-.16,3.39-.16,6.94-.65,10.18-1.13,3.39-.48,6.62-1.13,9.69-2.1.81-.16,1.45-.32,2.26-.65-25.2-5.98-46.03-20.67-57.34-41.02-3.07-5.33-5.17-10.66-6.78-15.99-1.62.49-3.39.97-5.17,1.29-1.78.49-3.55.81-5.33,1.13-3.55.81-7.11,1.45-10.98,1.78-2.1.49-4.36.65-6.78.81-2.1.32-4.2.48-6.46.65-2.1.16-4.36.32-6.78.32-4.52.32-9.37.48-14.37.48-30.36,1.61-109.34-6.62-147.94,5.49-3.39.97-6.3,2.26-9.04,3.55-2.91,1.62-5.49,3.39-7.59,5.33-10.18,10.34-6.46,26.97,22.29,53.78,67.83,75.59,212.87,118.55,150.69,246.46l-13.24,34.24-.16.49c-2.75,7.59-5.98,15.67-9.21,23.9l-1.78,4.36c-11.14,28.75-20.84,58.63-11.79,79.3.97,1.94,1.94,3.72,3.07,5.49,1.62,2.26,3.39,4.52,5.65,6.46,1.29,1.13,2.75,2.1,4.36,3.23h.16c7.59-1.94,15.02-4.2,22.45-6.78,4.85-1.78,9.85-3.55,14.7-5.65,4.85-1.94,9.69-4.04,14.37-6.3,14.37-6.78,28.26-14.7,41.51-23.74,2.58-1.61,5.17-3.55,7.75-5.33,4.68-3.39,9.21-6.78,13.57-10.34,5.65-4.36,10.98-9.04,16.15-13.73h.16c5.17-4.68,10.18-9.53,15.02-14.7,4.85-5.01,9.53-10.18,14.05-15.5,5.01-7.11,11.63-15.02,19.22-21.8,2.42-2.42,5.01-4.68,7.75-6.62h.16c4.2-3.39,8.72-6.3,13.24-8.4,2.26-1.13,4.68-2.1,7.11-2.91,7.91-2.58,15.99-3.23,23.74-.49,3.07.97,5.98,2.42,8.88,4.52h.16c3.07,1.94,5.98,4.52,8.72,7.75,14.21,16.47,33.92,36.34,55.4,55.72,7.27,6.3,14.7,12.6,22.13,18.73,4.36,3.39,8.56,6.78,12.76,10.01,5.81,4.36,11.63,8.72,17.28,12.6,11.31,7.59,22.29,14.37,32.63,19.54,2.91,1.45,5.65,2.75,8.4,3.88,3.23,1.45,6.3,2.58,9.21,3.55,10.34,3.55,19.54,4.68,26.97,2.42,2.75-.81,5.17-2.1,7.27-3.88,14.54-11.47,15.5-45.06-7.91-113.06-7.27-21.48-16.96-47-29.88-70.42-3.07-7.91-7.59-24.23-7.59-50.55,0-2.91,0-6.14.16-9.37,0-3.07.16-5.98.48-8.72v-.49c.65-5.65,1.94-10.66,4.2-15.83,1.61-3.23,3.55-6.46,5.98-9.85.65-1.29,1.61-2.58,2.75-3.88,50.71-47.48,122.42-69.13,164.58-127.59,19.06-18.74,20.51-30.69,13.08-38.92ZM627.43,355.79c-2.58,1.45-5.01,2.91-7.43,4.36-2.42,1.45-4.85,2.75-7.43,3.88-.81.48-1.61.81-2.58.97-.81.32-1.78.48-2.58.81h-.32c-10.18-19.54-24.87-40.7-14.37-51.36.81-.97,1.61-1.78,2.75-2.42.65-.32,1.29-.81,2.1-1.13.81-.32,1.78-.81,2.91-1.13,5.17-1.78,12.44-2.75,22.29-2.58,13.89.32,24.39,1.45,31.82,3.39.97.16,1.94.48,2.91.97.97.16,1.78.32,2.58.81,2.91,1.13,5.01,2.42,6.46,4.04,8.24,8.56-8.56,22.93-39.09,39.41ZM710.45,278.75c-.48-.16-.81-.32-1.29-.32-1.62-.49-3.23-.97-4.85-1.13,2.1.48,4.2,1.13,6.14,1.61v.16h.32v-.32h-.32ZM710.77,278.75v.32h-.32v-.16c-1.94-.48-4.04-1.13-6.14-1.61,1.62.16,3.23.65,4.85,1.13.48,0,.81.16,1.29.32h.32Z"/>
  </g>
</svg>