<?xml version="1.0" encoding="UTF-8"?>
<svg id="Layer_2" data-name="Layer 2" xmlns="http://www.w3.org/2000/svg" viewBox="0 0 864.6 296.5">
  <defs>
    <style>
      .cls-1 {
        fill: #efefef;
      }
    </style>
  </defs>
  <g id="Layer_1-2" data-name="Layer 1">
    <g>
      <path class="cls-1" d="M172.89,159.8v132.84h-52.17v-119.94c0-12.32-2.54-21.82-7.61-28.5-5.07-6.67-12.29-10.01-21.66-10.01-26.18,0-39.27,18.87-39.27,56.61v101.84H0V88.56h46.59l4.79,36.97h5.8c1.93-13.74,6.61-23.97,14.06-30.71,7.44-6.74,18.73-10.11,33.88-10.11,21.57,0,38.25,6.55,50.06,19.64,11.81,13.09,17.71,31.57,17.71,55.45Z"/>
      <path class="cls-1" d="M381.37,246.05v-75.47c0-26.96-8.99-47.46-26.96-61.52-17.97-14.05-45.43-21.33-82.4-21.85l-44.47-.57-3.86,47.36,52.18,1.35c18.36.51,32.18,3.3,41.49,8.37,9.31,5.07,13.96,13.06,13.96,23.97v.59c-4.3-.95-8.56-1.72-12.8-2.32-8.16-1.16-17.81-1.73-28.98-1.73-29.01,0-51.4,6.09-67.19,18.29-15.79,12.19-23.68,29.71-23.68,52.56,0,19.64,6.03,34.78,18.09,45.43,12.07,10.66,28.95,15.99,50.64,15.99,12.58,0,23.39-1.96,32.44-5.88,9.05-3.91,16.08-9.82,21.08-17.71,4.11-6.48,6.67-14.27,7.66-23.39h4.64l3.3,45.05,73.16-1.93v-42.35l-28.3-4.24ZM325.63,230.07c-3.79,6.55-9.47,11.94-17.04,16.17-7.57,4.24-17.01,6.36-28.3,6.36-9.37,0-16.49-1.83-21.37-5.49s-7.32-8.95-7.32-15.88c0-15.41,13.48-23.11,40.43-23.11,7.19,0,14.06.17,20.6.48,5.61.28,11.83,1.14,18.66,2.6-.23,6.46-2.11,12.75-5.66,18.87Z"/>
      <polygon class="cls-1" points="637.11 88.56 617.86 292.64 551.63 292.64 531.02 138.81 528.71 138.81 508.11 292.64 439.96 292.64 426.48 88.56 477.11 88.56 484.43 244.13 487.9 244.13 511.19 88.56 548.54 88.56 571.84 244.13 575.31 244.13 587.82 88.56 637.11 88.56"/>
      <path class="cls-1" d="M768.72,103.96v25.22h81.25v44.67h-81.25v118.79h-51.98v-118.79h-62v-44.67h62v-23.29c0-70.59,34.08-105.89,102.23-105.89,15.79,0,31,1.28,45.63,3.85l-5,48.32c-8.6-1.02-16.21-1.73-22.82-2.12-6.61-.38-12.93-.57-18.96-.57-32.73,0-49.1,18.16-49.1,54.48Z"/>
    </g>
  </g>
</svg>