<?xml version="1.0" encoding="UTF-8"?>
<svg id="Layer_2" data-name="Layer 2" xmlns="http://www.w3.org/2000/svg" viewBox="0 0 46.21 46.38">
  <defs>
    <style>
      .cls-1 {
        fill: #f4f4f4;
      }
    </style>
  </defs>
  <g id="Layer_1-2" data-name="Layer 1">
    <g>
      <path class="cls-1" d="M8.91,21.5c.13-.17.28-.32.44-.45-.17.12-.32.27-.46.45.17.58.49.95.93,1.17-.43-.24-.75-.6-.91-1.17ZM15.52,37c.06.19.16.36.32.52-.15-.16-.25-.33-.32-.52ZM16.88,30.99c-.25-3.03-3.3-3.15-3.03-5.04.04-.08.1-.15.18-.21-.09.05-.16.13-.2.21-.27,1.89,2.78,2.01,3.03,5.04.43,1.78-1.96,4.36-1.34,6.01-.59-1.67,1.79-4.24,1.36-6.01ZM16.74,23.02c.25.09.48.19.69.33-.21-.15-.44-.25-.69-.33ZM17.23,24.74c.14-.07.26-.15.37-.27-.11.1-.23.19-.37.27ZM18,23.89c-.16-.22-.35-.4-.56-.54.2.15.38.32.54.54-.08.23-.21.42-.38.58.18-.14.32-.34.4-.58ZM19.5,40.06c-.28.33-.57.65-.87.96.31-.31.61-.63.89-.96.31-.43.71-.91,1.17-1.35-.47.42-.88.91-1.19,1.35ZM21.18,38.3c.26-.2.53-.38.82-.52-.28.13-.56.31-.82.52ZM24.14,31.73c.23.17.47.38.73.64-.26-.28-.5-.49-.73-.64ZM24.87,32.37c.16.17.34.36.54.58-.19-.22-.37-.42-.54-.58ZM25.41,32.96c.24.29.5.62.79.99-.27-.38-.53-.7-.79-.99ZM27.74,36.21c-.56-.89-1.07-1.64-1.54-2.26.45.62.96,1.37,1.52,2.26.06.09.13.18.22.27-.08-.09-.14-.19-.2-.27ZM30.31,22.05c.48-.24.95-.52,1.4-.77-.45.24-.92.52-1.4.77ZM30.67,15.54c.64.45,1.38.69,2.18.82-.8-.14-1.53-.38-2.18-.82ZM36.45,46.16c.17-.05.32-.12.45-.24-.13.11-.28.19-.45.24ZM36.7,19.47c-.65.66.26,1.97.89,3.18h.02c-.63-1.19-1.51-2.49-.91-3.18ZM43.48,17.13h0s0,.01.02.01h-.01ZM43.61,17.17c.13.04.26.07.38.11h0c-.12-.04-.25-.08-.38-.11ZM44.01,17.26h0s.07.02.1.03c-.03-.01-.07-.02-.1-.03ZM45.93,18.14c.46.51.37,1.25-.81,2.41-2.61,3.62-7.05,4.96-10.19,7.9-.07.08-.13.16-.17.24.06-.08.12-.16.19-.24,3.14-2.94,7.58-4.28,10.19-7.9,1.2-1.18,1.28-1.92.79-2.41ZM27.2,6.15c-.38-1.41-.95-2.77-1.67-4.05-.5-.89-1.12-1.83-1.72-2.05-.04-.02-.08-.03-.12-.04-.04-.01-.07-.01-.11-.01.06,4.06,2.65,8.91,1.52,12.78,0-.01-.01-.01-.01-.02-.24-.38-.48-.83-.72-1.33-1.01-2.15-1.96-5.08-2.97-6.33-.08-.1-.17-.2-.25-.28s-.18-.16-.27-.22c-.04-.03-.09-.05-.14-.07-.18-.07-.34-.08-.51-.02-.53.19-1.08,1.05-1.65,2.91,0,0,0,.01-.01.03-.05.23-.37,1.58-.59,2.73,0,.01,0,.03-.01.04-.04.42-.1.81-.17,1.18-.01.02-.01.03-.01.05-.14.73-.29,1.38-.51,1.95-.26.77-.61,1.4-1.12,1.9-.29.32-.64.59-1.06.81.72,1.23,1.85,2.53,3.56,3.34.16.07.3.14.46.2h.01s.06-.06.09-.09c.16-.14.3-.29.42-.47.14-.18.24-.37.32-.59.06-.11.1-.23.15-.35.29-1.37.39-4.82,1.15-5.04.05-.02.1-.02.16.01.03.01.06.02.1.04.24.12.52.53.88,1.31,1.69,4.51,2.99,6.79,3.96,7.55h0s.02.02.03.03c.07.05.15.1.23.15.03.02.06.04.1.05.04.02.07.04.11.06h.01c2.32.57,2.12-9.56.36-16.17Z"/>
      <path class="cls-1" d="M45.93,18.14c-.28-.31-.75-.52-1.3-.7-.14-.05-.28-.09-.42-.12-.03,0-.07-.03-.1-.03-.03-.01-.07-.02-.1-.02h0s-.01.01-.02.01c-.12-.04-.25-.07-.38-.11-.02-.01-.04-.02-.06-.02h-.02s-.01-.01-.02-.01h-.02s-.01,0-.02-.01h-.01c-.06,0-.12-.03-.18-.05-.06-.02-.12-.03-.17-.04-.15-.04-.3-.07-.44-.11-2.15-.44-4.35-.52-5.76-.51-.04,0-.09,0-.13.01-.46.02-.92.04-1.37.05-.37.01-.74.02-1.09,0-.12,0-.24,0-.35-.01-.24-.01-.47-.03-.69-.05-.15-.02-.29-.04-.43-.06-.8-.13-1.54-.37-2.18-.82-.32-.2-.61-.46-.88-.78.2,2.69.09,5.56-1.51,7.78.2.03.4.03.6,0h.02c.12-.02.21-.04.29-.06.05-.01.11-.03.16-.04.02,0,.03,0,.03,0,.15-.04.29-.1.44-.16.16-.06.32-.14.49-.22.48-.25.95-.53,1.4-.77.25-.15.48-.27.71-.36.07-.04.13-.06.2-.08.02,0,.03-.01.04-.02.07-.02.13-.04.2-.05.06-.02.12-.03.17-.04.06-.01.12-.02.18-.02.1,0,.2.01.29.03.04,0,.08.02.12.04.51.2.86.91.97,2.53-.09.42-.29.76-.57,1.04-.09.1-.19.18-.29.26-.29.25-.65.45-1.02.62-.12.06-.25.12-.37.18-.38.17-.76.33-1.12.51h-.01c-.48.25-.91.51-1.23.86h0s-.01,0-.02.01c-.18.14-1.55,1.37-.95,4.32-.01.02,0,.04.01.07.01.09.04.19.06.29.03.14.07.28.11.43.42,1.55,1.52,3.11,1.59,4.7-.02.68-.28.97-.64,1.03-.23.04-.49-.02-.76-.13-.08-.03-.17-.07-.25-.11-.16-.08-.32-.18-.47-.29-.16-.11-.31-.23-.44-.35h-.01c-.1-.09-.19-.18-.26-.27-.09-.09-.16-.18-.22-.27-.56-.89-1.07-1.64-1.52-2.26-.29-.37-.55-.7-.79-.99h0c-.2-.23-.38-.42-.54-.59-.26-.26-.5-.47-.73-.64-.15-.11-.3-.2-.44-.28-.14-.07-.27-.12-.4-.16-.29-.08-.55-.08-.79,0-.15.04-.29.12-.43.21-.07.04-.14.09-.2.15-.02.01-.03.02-.04.03-.06.05-.11.1-.16.15-.11.11-.2.22-.31.34h0c-.1.13-.2.26-.31.4h0c-.1.15-.2.3-.31.45h0c-.14.23-.29.45-.44.68-.01.02-.02.03-.04.05-.26.42-.55.86-.88,1.29-.05.08-.12.17-.19.25h-.01c-.13.18-.27.35-.42.51-.06.09-.14.17-.22.25-.1.1-.2.2-.31.29-.1.11-.21.2-.32.28-.23.19-.48.37-.74.51-.14.09-.28.16-.43.22-.13.08-.27.14-.42.19-.11.04-.22.08-.34.11h-.01s-.1-.09-.14-.13c-.16-.16-.26-.33-.32-.52-.62-1.65,1.77-4.23,1.34-6.01-.25-3.03-3.3-3.15-3.03-5.04.04-.08.11-.16.2-.21.04-.04.09-.07.14-.09.05-.03.1-.06.16-.08.08-.02.17-.05.27-.08.54-.16,1.28-.25,1.93-.46.25-.08.49-.17.7-.29.14-.08.26-.17.37-.27.17-.16.3-.35.38-.58-.16-.22-.34-.39-.54-.54h-.01c-.21-.14-.44-.24-.69-.33-1.87-.6-4.72.32-6.45-.17-.17-.05-.33-.11-.47-.18-.44-.22-.76-.59-.93-1.17.14-.18.29-.33.46-.45.08-.07.16-.13.25-.17.09-.06.18-.11.27-.15.13-.05.26-.1.4-.14,1.63-.5,3.97.01,5.97-.06.11,0,.22,0,.33-.01.21-.01.43-.04.63-.07.21-.03.41-.07.6-.13.05,0,.09-.02.14-.04-1.56-.37-2.85-1.28-3.55-2.54-.19-.33-.32-.66-.42-.99-.1.03-.21.06-.32.08-.11.03-.22.05-.33.07-.22.05-.44.09-.68.11-.13.03-.27.04-.42.05-.13.02-.26.03-.4.04-.13.01-.27.02-.42.02-.28.02-.58.03-.89.03-1.88.1-6.77-.41-9.16.34-.21.06-.39.14-.56.22-.18.1-.34.21-.47.33-.63.64-.4,1.67,1.38,3.33,4.2,4.68,13.18,7.34,9.33,15.26l-.82,2.12v.03c-.18.47-.38.97-.58,1.48l-.11.27c-.69,1.78-1.29,3.63-.73,4.91.06.12.12.23.19.34.1.14.21.28.35.4.08.07.17.13.27.2h0c.47-.12.93-.26,1.39-.42.3-.11.61-.22.91-.35.3-.12.6-.25.89-.39.89-.42,1.75-.91,2.57-1.47.16-.1.32-.22.48-.33.29-.21.57-.42.84-.64.35-.27.68-.56,1-.85h.01c.32-.29.63-.59.93-.91.3-.31.59-.63.87-.96.31-.44.72-.93,1.19-1.35.15-.15.31-.29.48-.41h.01c.26-.21.54-.39.82-.52.14-.07.29-.13.44-.18.49-.16.99-.2,1.47-.03.19.06.37.15.55.28h.01c.19.12.37.28.54.48.88,1.02,2.1,2.25,3.43,3.45.45.39.91.78,1.37,1.16.27.21.53.42.79.62.36.27.72.54,1.07.78.7.47,1.38.89,2.02,1.21.18.09.35.17.52.24.2.09.39.16.57.22.64.22,1.21.29,1.67.15.17-.05.32-.13.45-.24.9-.71.96-2.79-.49-7-.45-1.33-1.05-2.91-1.85-4.36-.19-.49-.47-1.5-.47-3.13,0-.18,0-.38.01-.58,0-.19,0-.37.03-.54v-.03c.04-.35.12-.66.26-.98.1-.2.22-.4.37-.61.04-.08.1-.16.17-.24,3.14-2.94,7.58-4.28,10.19-7.9,1.18-1.16,1.27-1.9.81-2.41ZM38.85,22.03c-.16.09-.31.18-.46.27-.15.09-.3.17-.46.24-.05.03-.1.05-.16.06-.05.02-.11.03-.16.05h-.02c-.63-1.21-1.54-2.52-.89-3.18.05-.06.1-.11.17-.15.04-.02.08-.05.13-.07.05-.02.11-.05.18-.07.32-.11.77-.17,1.38-.16.86.02,1.51.09,1.97.21.06.01.12.03.18.06.06.01.11.02.16.05.18.07.31.15.4.25.51.53-.53,1.42-2.42,2.44Z"/>
      <path class="cls-1" d="M43.99,17.26s-.05-.02-.08-.02c-.1-.03-.2-.06-.3-.07.13.03.26.07.38.1h0s.01.01.02.01v-.02h-.02Z"/>
      <path class="cls-1" d="M44.01,17.26v.02h-.02c-.12-.04-.25-.08-.38-.11.1.01.2.04.3.07.03,0,.05,0,.08.02h.02Z"/>
    </g>
  </g>
</svg>